<?xml version="1.0" standalone="no"?>
<!DOCTYPE svg PUBLIC "-//W3C//DTD SVG 1.1//EN" "http://www.w3.org/Graphics/SVG/1.1/DTD/svg11.dtd">
<svg xmlns="http://www.w3.org/2000/svg" width="890" height="161" viewBox="0 0 890 161" fill="none">
<path d="M40.4347 160H1.7803L2.10788 74.8391H98.0167L81.5005 114.232H40.4347V160Z" fill="#1FBD58"/>
<path d="M40.5439 63.7666H1V1H133L110.762 41.4988H40.5439V63.7666Z" fill="#1FBD58"/>
<path d="M40.4347 160H1.7803L2.10788 74.8391H98.0167L81.5005 114.232H40.4347V160Z" stroke="#1FBD58"/>
<path d="M40.5439 63.7666H1V1H133L110.762 41.4988H40.5439V63.7666Z" stroke="#1FBD58"/>
<path fill-rule="evenodd" clip-rule="evenodd" d="M158 78V155H182H206V78V1H182H158V78ZM239 78V155H262.5H286V126.966V98.932L296.721 99.216L307.441 99.5L320.092 127L332.742 154.5L360.476 154.766L388.209 155.032L385.75 150.766C379.257 139.503 353.793 91.883 354.124 91.622C354.331 91.458 357.059 89.652 360.187 87.607C367.429 82.872 377.006 72.66 380.102 66.372C382.018 62.479 382.569 59.549 382.842 51.794C383.031 46.456 382.691 39.786 382.087 36.972C379.277 23.87 371.203 13.679 358.764 7.535C345.516 0.992 345.869 1.025 289.75 1.012L239 1V78ZM408.225 54.25L408.5 107.5L412.106 115C430.243 152.724 471.412 166.928 517.831 151.477C536.07 145.406 550.367 135.025 556.2 123.618C560.841 114.541 560.976 112.613 560.988 55.25L561 1H536.567H512.134L511.817 50.75L511.5 100.5L509.111 105.788C506.3 112.009 499.769 118.153 494.193 119.824C483.61 122.995 469.83 120.215 463.489 113.629C456.574 106.448 456.666 107.241 456.253 51.25L455.882 1H431.916H407.949L408.225 54.25ZM590 78V155H654.5H719V136.511V118.023L679.25 117.761L639.5 117.5L639.242 59.25L638.984 1H614.492H590V78ZM774.713 5.25C773.902 7.588 761.709 41.991 747.619 81.702C733.528 121.414 722 154.159 722 154.47C722 154.781 732.855 154.915 746.123 154.768L770.247 154.5L774.548 144L778.849 133.5H805.607H832.366L835.899 144.25L839.432 155H864.716C878.622 155 890 154.802 890 154.559C890 154.195 840.461 18.909 835.326 5.25L833.728 1H804.958H776.188L774.713 5.25ZM325.111 37.079C331.247 41.448 332.943 50.27 329.097 57.81C325.519 64.824 324.898 65 303.777 65H285V50V35H303.596C320.823 35 322.406 35.153 325.111 37.079ZM813.378 69.228C817.57 83.928 821 96.641 821 97.478C821 98.78 818.595 99 804.383 99C789.044 99 787.562 99.093 788 97.478C789.357 92.469 805.408 42.08 805.568 42.273C805.671 42.398 809.186 54.528 813.378 69.228Z" fill="#1FBD58"/>
</svg>
